<?xml version="1.0" encoding="UTF-8"?>
<svg width="700pt" height="700pt" version="1.1" viewBox="0 0 700 700" xmlns="http://www.w3.org/2000/svg" xmlns:xlink="http://www.w3.org/1999/xlink">
 <defs>
  <symbol id="d" overflow="visible">
   <path d="m29.312-1.75c-1.5117 0.78125-3.0898 1.3711-4.7344 1.7656-1.6367 0.40625-3.3398 0.60938-5.1094 0.60938-5.3125 0-9.5273-1.4844-12.641-4.4531-3.1055-2.9688-4.6562-7-4.6562-12.094s1.5508-9.125 4.6562-12.094c3.1133-2.9688 7.3281-4.4531 12.641-4.4531 1.7695 0 3.4727 0.19922 5.1094 0.59375 1.6445 0.39844 3.2227 0.99219 4.7344 1.7812v6.5938c-1.5312-1.0391-3.0391-1.8008-4.5156-2.2812-1.4805-0.48828-3.0391-0.73438-4.6719-0.73438-2.9375 0-5.2461 0.94531-6.9219 2.8281-1.6797 1.875-2.5156 4.4648-2.5156 7.7656 0 3.293 0.83594 5.8828 2.5156 7.7656 1.6758 1.875 3.9844 2.8125 6.9219 2.8125 1.6328 0 3.1914-0.23828 4.6719-0.71875 1.4766-0.48828 2.9844-1.2539 4.5156-2.2969z"/>
  </symbol>
  <symbol id="k" overflow="visible">
   <path d="m21.453-17.406c-0.67969-0.3125-1.3516-0.53906-2.0156-0.6875-0.65625-0.15625-1.3203-0.23438-1.9844-0.23438-1.9688 0-3.4844 0.63281-4.5469 1.8906-1.0547 1.2617-1.5781 3.0703-1.5781 5.4219v11.016h-7.6562v-23.922h7.6562v3.9219c0.97656-1.5625 2.1016-2.7031 3.375-3.4219 1.2812-0.71875 2.8125-1.0781 4.5938-1.0781 0.25 0 0.52344 0.011719 0.82812 0.03125 0.30078 0.023438 0.73438 0.070312 1.2969 0.14062z"/>
  </symbol>
  <symbol id="a" overflow="visible">
   <path d="m27.562-12.031v2.1875h-17.891c0.1875 1.793 0.83203 3.1367 1.9375 4.0312 1.1133 0.89844 2.6719 1.3438 4.6719 1.3438 1.6016 0 3.25-0.23438 4.9375-0.70312 1.6875-0.47656 3.4219-1.2031 5.2031-2.1719v5.8906c-1.8047 0.6875-3.6094 1.2031-5.4219 1.5469-1.8125 0.35156-3.6211 0.53125-5.4219 0.53125-4.3359 0-7.7031-1.0977-10.109-3.2969-2.3984-2.207-3.5938-5.2969-3.5938-9.2656 0-3.9062 1.1758-6.9727 3.5312-9.2031 2.3633-2.2383 5.6094-3.3594 9.7344-3.3594 3.7578 0 6.7695 1.1367 9.0312 3.4062 2.2578 2.2617 3.3906 5.2812 3.3906 9.0625zm-7.8594-2.5312c0-1.457-0.42969-2.6289-1.2812-3.5156-0.84375-0.89453-1.9492-1.3438-3.3125-1.3438-1.4922 0-2.6992 0.41797-3.625 1.25-0.91797 0.83594-1.4922 2.0391-1.7188 3.6094z"/>
  </symbol>
  <symbol id="j" overflow="visible">
   <path d="m14.391-10.766c-1.5938 0-2.793 0.27344-3.5938 0.8125-0.80469 0.54297-1.2031 1.3398-1.2031 2.3906 0 0.96875 0.32031 1.7305 0.96875 2.2812 0.64453 0.54297 1.5469 0.8125 2.7031 0.8125 1.4375 0 2.6445-0.51562 3.625-1.5469 0.98828-1.0312 1.4844-2.3203 1.4844-3.875v-0.875zm11.688-2.8906v13.656h-7.7031v-3.5469c-1.0312 1.4492-2.1875 2.5078-3.4688 3.1719s-2.8398 1-4.6719 1c-2.4805 0-4.4961-0.72266-6.0469-2.1719-1.543-1.4453-2.3125-3.3203-2.3125-5.625 0-2.8125 0.96094-4.8672 2.8906-6.1719 1.9375-1.3125 4.9688-1.9688 9.0938-1.9688h4.5156v-0.60938c0-1.207-0.48047-2.0938-1.4375-2.6562-0.94922-0.5625-2.4375-0.84375-4.4688-0.84375-1.6367 0-3.1562 0.16797-4.5625 0.5-1.4062 0.32422-2.7188 0.8125-3.9375 1.4688v-5.8281c1.6445-0.40625 3.2891-0.70703 4.9375-0.90625 1.6562-0.20703 3.3047-0.3125 4.9531-0.3125 4.3203 0 7.4375 0.85547 9.3438 2.5625 1.9141 1.6992 2.875 4.4609 2.875 8.2812z"/>
  </symbol>
  <symbol id="i" overflow="visible">
   <path d="m12.031-30.719v6.7969h7.875v5.4688h-7.875v10.141c0 1.1172 0.21875 1.8711 0.65625 2.2656 0.4375 0.38672 1.3125 0.57812 2.625 0.57812h3.9375v5.4688h-6.5625c-3.0234 0-5.1641-0.62891-6.4219-1.8906-1.2617-1.2578-1.8906-3.3984-1.8906-6.4219v-10.141h-3.7969v-5.4688h3.7969v-6.7969z"/>
  </symbol>
  <symbol id="h" overflow="visible">
   <path d="m19.953-20.422v-12.812h7.6875v33.234h-7.6875v-3.4531c-1.0547 1.4062-2.2148 2.4375-3.4844 3.0938-1.2734 0.65625-2.7422 0.98438-4.4062 0.98438-2.9492 0-5.3711-1.1719-7.2656-3.5156-1.8867-2.3438-2.8281-5.3594-2.8281-9.0469s0.94141-6.7031 2.8281-9.0469c1.8945-2.3438 4.3164-3.5156 7.2656-3.5156 1.6562 0 3.1172 0.33594 4.3906 1 1.2812 0.65625 2.4453 1.6836 3.5 3.0781zm-5.0469 15.484c1.6445 0 2.8945-0.59766 3.75-1.7969 0.86328-1.1953 1.2969-2.9297 1.2969-5.2031 0-2.2812-0.43359-4.0195-1.2969-5.2188-0.85547-1.1953-2.1055-1.7969-3.75-1.7969-1.625 0-2.8711 0.60156-3.7344 1.7969-0.85547 1.1992-1.2812 2.9375-1.2812 5.2188 0 2.2734 0.42578 4.0078 1.2812 5.2031 0.86328 1.1992 2.1094 1.7969 3.7344 1.7969z"/>
  </symbol>
  <symbol id="g" overflow="visible">
   <path d="m16.406-4.9375c1.6328 0 2.8828-0.59766 3.75-1.7969 0.86328-1.1953 1.2969-2.9297 1.2969-5.2031 0-2.2812-0.43359-4.0195-1.2969-5.2188-0.86719-1.1953-2.1172-1.7969-3.75-1.7969-1.6367 0-2.8906 0.60547-3.7656 1.8125-0.875 1.1992-1.3125 2.9336-1.3125 5.2031 0 2.2617 0.4375 3.9961 1.3125 5.2031 0.875 1.1992 2.1289 1.7969 3.7656 1.7969zm-5.0781-15.484c1.0508-1.3945 2.2188-2.4219 3.5-3.0781 1.2812-0.66406 2.7539-1 4.4219-1 2.9453 0 5.3672 1.1719 7.2656 3.5156 1.8945 2.3438 2.8438 5.3594 2.8438 9.0469s-0.94922 6.7031-2.8438 9.0469c-1.8984 2.3438-4.3203 3.5156-7.2656 3.5156-1.668 0-3.1406-0.33594-4.4219-1s-2.4492-1.6914-3.5-3.0781v3.4531h-7.6562v-33.234h7.6562z"/>
  </symbol>
  <symbol id="f" overflow="visible">
   <path d="m0.53125-23.922h7.6562l6.4219 16.234 5.4688-16.234h7.6562l-10.062 26.188c-1.0117 2.6641-2.1953 4.5234-3.5469 5.5781-1.3438 1.0625-3.1211 1.5938-5.3281 1.5938h-4.4219v-5.0156h2.3906c1.3008 0 2.2422-0.21094 2.8281-0.625 0.59375-0.40625 1.0547-1.1484 1.3906-2.2188l0.20312-0.65625z"/>
  </symbol>
  <symbol id="e" overflow="visible">
   <path d="m0.21875-31.891h8.2656l8.4531 23.531 8.4375-23.531h8.2656l-11.812 31.891h-9.7969z"/>
  </symbol>
  <symbol id="p" overflow="visible">
   <path d="m4.0156-31.891h8.2188v31.891h-8.2188z"/>
  </symbol>
  <symbol id="c" overflow="visible">
   <path d="m4.0156-31.891h9.1875l11.594 21.875v-21.875h7.7969v31.891h-9.1875l-11.594-21.875v21.875h-7.7969z"/>
  </symbol>
  <symbol id="o" overflow="visible">
   <path d="m2.4531-31.891h26.812v4.9688l-17.109 20.703h17.594v6.2188h-27.781v-4.9844l17.109-20.688h-16.625z"/>
  </symbol>
  <symbol id="b" overflow="visible">
   <path d="m4.0156-31.891h22.203v6.2188h-13.984v5.9375h13.141v6.2188h-13.141v7.2969h14.453v6.2188h-22.672z"/>
  </symbol>
  <symbol id="n" overflow="visible">
   <path d="m26.219-30.891v6.75c-1.7617-0.78125-3.4766-1.3672-5.1406-1.7656-1.668-0.40625-3.2422-0.60938-4.7188-0.60938-1.9609 0-3.4141 0.27344-4.3594 0.8125-0.9375 0.54297-1.4062 1.3867-1.4062 2.5312 0 0.85547 0.31641 1.5234 0.95312 2 0.63281 0.46875 1.7852 0.875 3.4531 1.2188l3.5 0.70312c3.5391 0.71875 6.0625 1.8047 7.5625 3.25 1.5 1.4492 2.25 3.5117 2.25 6.1875 0 3.5234-1.0469 6.1406-3.1406 7.8594-2.0859 1.7188-5.2734 2.5781-9.5625 2.5781-2.0234 0-4.0547-0.19531-6.0938-0.57812-2.0312-0.38281-4.0625-0.95703-6.0938-1.7188v-6.9375c2.0312 1.0859 3.9922 1.9023 5.8906 2.4531 1.9062 0.54297 3.7422 0.8125 5.5156 0.8125 1.7891 0 3.1602-0.29688 4.1094-0.89062 0.95703-0.60156 1.4375-1.457 1.4375-2.5625 0-1-0.32422-1.7695-0.96875-2.3125-0.64844-0.53906-1.9375-1.0234-3.875-1.4531l-3.1875-0.70312c-3.1875-0.6875-5.5234-1.7734-7-3.2656-1.4688-1.5-2.2031-3.5156-2.2031-6.0469 0-3.1758 1.0234-5.6172 3.0781-7.3281 2.0508-1.707 5-2.5625 8.8438-2.5625 1.75 0 3.5508 0.13281 5.4062 0.39062 1.8516 0.26172 3.7695 0.65625 5.75 1.1875z"/>
  </symbol>
  <symbol id="m" overflow="visible">
   <path d="m0.21875-31.891h29.391v6.2188h-10.578v25.672h-8.2188v-25.672h-10.594z"/>
  </symbol>
  <symbol id="l" overflow="visible">
   <path d="m4.0156-31.891h8.2188v19.109c0 2.6367 0.42969 4.5234 1.2969 5.6562 0.86328 1.1367 2.2695 1.7031 4.2188 1.7031 1.9688 0 3.3789-0.56641 4.2344-1.7031 0.86328-1.1328 1.2969-3.0195 1.2969-5.6562v-19.109h8.2344v19.109c0 4.5234-1.1367 7.8867-3.4062 10.094-2.2617 2.2109-5.7148 3.3125-10.359 3.3125-4.625 0-8.0742-1.1016-10.344-3.3125-2.2617-2.207-3.3906-5.5703-3.3906-10.094z"/>
  </symbol>
 </defs>
 <g>
  <path d="m328.12 490c-5.8008 0-11.367 2.3047-15.469 6.4062s-6.4062 9.668-6.4062 15.469v8.75c0 2.418-1.957 4.375-4.375 4.375s-4.375-1.957-4.375-4.375v-34.457c0-9.3789-5.0039-18.043-13.125-22.734-8.1211-4.6875-18.129-4.6875-26.25 0-8.1211 4.6914-13.125 13.355-13.125 22.734v8.207c0 2.418-1.957 4.375-4.375 4.375s-4.375-1.957-4.375-4.375v-4.375c0-9.3789-5.0039-18.043-13.125-22.734-8.1211-4.6875-18.129-4.6875-26.25 0-8.1211 4.6914-13.125 13.355-13.125 22.734v30.625c0 2.418-1.957 4.375-4.375 4.375s-4.375-1.957-4.375-4.375v-4.375c0-9.3789-5.0039-18.043-13.125-22.734-8.1211-4.6875-18.129-4.6875-26.25 0-8.1211 4.6914-13.125 13.355-13.125 22.734v43.75h17.5v-43.75c0-4.832 3.918-8.75 8.75-8.75s8.75 3.918 8.75 8.75v4.375c0 7.8164 4.168 15.035 10.938 18.945 6.7695 3.9062 15.105 3.9062 21.875 0 6.7695-3.9102 10.938-11.129 10.938-18.945v-30.625c0-4.832 3.918-8.75 8.75-8.75s8.75 3.918 8.75 8.75v4.375c0 7.8164 4.168 15.035 10.938 18.945 6.7695 3.9062 15.105 3.9062 21.875 0 6.7695-3.9102 10.938-11.129 10.938-18.945v-8.207c0-4.832 3.918-8.75 8.75-8.75s8.75 3.918 8.75 8.75v34.457c0 7.8164 4.168 15.035 10.938 18.945 6.7695 3.9062 15.105 3.9062 21.875 0 6.7695-3.9102 10.938-11.129 10.938-18.945v-8.75c0-2.418 1.957-4.375 4.375-4.375s4.375 1.957 4.375 4.375v48.125h17.5v-48.125c0-5.8008-2.3047-11.367-6.4062-15.469s-9.668-6.4062-15.469-6.4062z"/>
  <path d="m297.5 192.5c-9.2812 0-18.184 3.6875-24.75 10.25-6.5625 6.5664-10.25 15.469-10.25 24.75v105c0 12.504 6.6719 24.059 17.5 30.312 10.828 6.25 24.172 6.25 35 0 10.828-6.2539 17.5-17.809 17.5-30.312v-105c0-9.2812-3.6875-18.184-10.25-24.75-6.5664-6.5625-15.469-10.25-24.75-10.25zm17.5 140c0 6.2539-3.3359 12.031-8.75 15.156s-12.086 3.125-17.5 0-8.75-8.9023-8.75-15.156v-105c0-6.2539 3.3359-12.031 8.75-15.156s12.086-3.125 17.5 0 8.75 8.9023 8.75 15.156z"/>
  <path d="m621.25 245c-10.082 0.011719-19.852 3.5-27.664 9.875-7.8086 6.375-13.18 15.25-15.211 25.125h-9.625c-11.598 0.015625-22.719 4.6289-30.922 12.828-8.1992 8.2031-12.812 19.324-12.828 30.922v0.54297c-16.93 2.1445-32.488 10.41-43.75 23.23v-54.398c0.019531-27.145-5.1562-54.043-15.25-79.238l-2.5742-6.4141-1.6094-8.0508 22.199-7.4023c19.039-6.2812 34.77-19.922 43.688-37.879l5.1289-10.254c1.3945-2.8086 1.1836-6.1445-0.55078-8.75l-17.5-26.25c-1.457-2.1797-3.8086-3.5938-6.4141-3.8516-2.6094-0.24609-5.1914 0.67578-7.0547 2.5195l-17.5 17.5c-0.95703 0.96094-1.6797 2.1328-2.1094 3.4219-4.8359 14.621-15.316 26.707-29.109 33.566l-7.875 3.9453c-4.6797-4.2773-10.09-7.6836-15.969-10.055v-7.9727c12.23-2.0469 23.34-8.3711 31.352-17.836 8.0117-9.4688 12.402-21.473 12.398-33.875v-35h6.6836c7.5195 0.027344 14.891-2.0508 21.289-6 6.3945-3.9492 11.559-9.6094 14.902-16.34 1.1328-2.2695 1.2227-4.9141 0.25-7.2578-0.97266-2.3398-2.9102-4.1445-5.3164-4.9492l-12.809-4.2891 7.4805-7.4805v0.003906c2.5078-2.5078 3.2539-6.2812 1.8867-9.5547-1.3633-3.2734-4.5703-5.3984-8.1172-5.3828h-105c-2.3203 0-4.5469 0.92188-6.1875 2.5625l-14.934 14.938h-22.629c-2.9023 0-5.6172 1.4375-7.2461 3.8398-1.6289 2.4062-1.9609 5.4609-0.88281 8.1562l16.879 42.191v24.562c0 2.3203 0.92188 4.5469 2.5625 6.1875s3.8672 2.5625 6.1875 2.5625h0.69922c2.0039 11.703 7.9297 22.379 16.801 30.273v16.461c-4.9453 2.4375-9.4258 5.7266-13.23 9.7188l-45.5-121.34c-2.0508-5.4648-6.2461-9.8555-11.613-12.148-5.3672-2.2969-11.438-2.2969-16.805 0-5.3672 2.293-9.5625 6.6836-11.613 12.148l-49.438 131.8c-0.3125 0.89453-0.47656 1.832-0.48828 2.7812 0 0.10547-0.0625 0.19141-0.0625 0.29688v175h-9.3633c-1.6562-11.637-6.6367-22.543-14.348-31.414-7.707-8.8711-17.812-15.328-29.105-18.594-1.4219-13.668-7.3906-26.465-16.953-36.336-9.5586-9.875-22.156-16.25-35.773-18.113-2.0078-14.684-9.2617-28.141-20.418-37.891-11.16-9.75-25.473-15.133-40.289-15.152v17.5c11.598 0.015625 22.719 4.6289 30.922 12.828 8.1992 8.2031 12.812 19.324 12.828 30.922 0 2.3203 0.92188 4.5469 2.5625 6.1875s3.8672 2.5625 6.1875 2.5625c11.68 0.027344 22.867 4.7148 31.078 13.02 8.2148 8.3047 12.773 19.539 12.672 31.219-0.14453 4.3828 2.9766 8.1914 7.2969 8.918 10.203 1.6875 19.473 6.9492 26.148 14.844 6.6797 7.8984 10.332 17.91 10.305 28.25 0 2.3203 0.92188 4.5469 2.5625 6.1875s3.8672 2.5625 6.1875 2.5625h17.5v17.5c0 2.3203 0.92188 4.5469 2.5625 6.1875s3.8672 2.5625 6.1875 2.5625h8.75v35c0.003906 3.7656 2.4141 7.1055 5.9844 8.2969l52.5 17.5c0.89062 0.30078 1.8242 0.45312 2.7656 0.45312 2.3203 0 4.5469-0.92188 6.1875-2.5625s2.5625-3.8672 2.5625-6.1875v-52.5h35c0.015625 4.6211 3.6445 8.4219 8.2617 8.6523l-8.2617 148.36c-0.13672 2.4023 0.72656 4.7578 2.3828 6.5039 1.6562 1.75 3.9609 2.7383 6.3672 2.7344h35c4.3867 0 8.0938-3.25 8.6719-7.5938l5.9219-44.414 2.9062 43.836c0.30469 4.6055 4.1328 8.1836 8.75 8.1719h35c2.3203 0 4.5469-0.92188 6.1875-2.5625s2.5625-3.8672 2.5625-6.1875v-148.75c2.3203 0 4.5469-0.92188 6.1875-2.5625s2.5625-3.8672 2.5625-6.1875c0.015625-13.918 5.5508-27.266 15.391-37.109 9.8438-9.8398 23.191-15.375 37.109-15.391 2.3203 0 4.5469-0.92188 6.1875-2.5625s2.5625-3.8672 2.5625-6.1875v-8.75c0-6.9609 2.7656-13.641 7.6875-18.562s11.602-7.6875 18.562-7.6875h17.5c2.3203 0 4.5469-0.92188 6.1875-2.5625s2.5625-3.8672 2.5625-6.1875c0-6.9609 2.7656-13.641 7.6875-18.562s11.602-7.6875 18.562-7.6875h8.75v-17.5zm-218.75-39.148c0-7.875 4.6094-13.352 8.75-13.352s8.75 5.4844 8.75 14.168l16.625 178.33h-17.402zm17.5 196.65h17.5c0 4.832-3.918 8.75-8.75 8.75s-8.75-3.918-8.75-8.75zm77.605-266.47 8.5391-8.5469 8.75 13.125-2.8516 5.7148v-0.003906c-6.8594 13.793-18.945 24.273-33.566 29.113l-21.691 7.2266c-0.40234-0.875-0.73438-1.75-1.1797-2.625l4.8047-2.3984h-0.003906c17.281-8.5781 30.602-23.477 37.199-41.605zm-121.36-101.03c2.3203 0 4.5469-0.92188 6.1875-2.5625l14.934-14.938h80.254l-2.5625 2.5625c-2.1406 2.1445-3.0195 5.2461-2.3203 8.1953 0.69531 2.9492 2.8672 5.3281 5.7422 6.2891l14.281 4.7695v-0.003906c-3.9375 2.8945-8.6953 4.4492-13.582 4.4375h-85.434c-4.832 0-8.75 3.918-8.75 8.75v8.75h-11.578l-10.5-26.25zm0 52.5v-8.75h17.5c2.3203 0 4.5469-0.92188 6.1875-2.5625s2.5625-3.8672 2.5625-6.1875v-8.75h52.5v35c0.011719 9.0547-3.4961 17.758-9.7812 24.27-6.2852 6.5156-14.859 10.332-23.906 10.645h-0.085938c-0.40625 0.070313-0.81641 0.10156-1.2266 0.085938-8.0352-0.015625-15.82-2.7969-22.051-7.875l-0.17578-0.085938c-8.0742-6.6602-12.758-16.574-12.773-27.039 0-2.3203-0.92188-4.5469-2.5625-6.1875s-3.8672-2.5625-6.1875-2.5625zm35 60.461v3.5859l-8.75-1.4609v-4.375 0.003906c2.8242 1.0664 5.7617 1.8203 8.75 2.2461zm-16.625 18.551 20.125 3.3516c7.082 1.207 13.637 4.5273 18.801 9.5234 5.1641 4.9961 8.6953 11.438 10.137 18.477l2.7734 13.824c0.097656 0.52734 0.25 1.043 0.44531 1.543l2.8711 7.1562c9.2617 23.129 14.008 47.82 13.973 72.738v91.875h-9.5273l-16.723-179.15c0.54688-7.5586-1.8945-15.027-6.8086-20.801-4.9102-5.7734-11.895-9.3828-19.441-10.051-14.473 0-26.25 13.844-26.25 31.668l16.625 178.33h-25.375v-191.08c-0.003906-5.875 1.7422-11.621 5.0156-16.5 3.2734-4.8828 7.9219-8.6758 13.359-10.906zm-92.016-120.24c0.6875-1.3789 2.0938-2.2539 3.6367-2.2539 1.5391 0 2.9492 0.875 3.6367 2.2539l31.867 84.98h-71zm-38.422 102.48h84.121l6.5625 17.5h-97.246zm42.062 285.36-35-11.664v-7.7969l35 11.664zm0-26.25-35-11.664v-2.4414h35zm8.75-31.605h-61.25v-192.5h105v192.5zm79.836 166.25h-18.086l7.7773-140h17.973c0.011719 7.293 3.0781 14.242 8.4531 19.172zm60.164 0h-18.059l-7.5859-113.81c6.8438-0.15625 13.359-2.9844 18.148-7.875 4.793-4.8945 7.4805-11.465 7.4961-18.312z"/>
  <use x="70" y="691.25" xlink:href="#d"/>
  <use x="102.109375" y="691.25" xlink:href="#k"/>
  <use x="123.683594" y="691.25" xlink:href="#a"/>
  <use x="153.355469" y="691.25" xlink:href="#j"/>
  <use x="182.878906" y="691.25" xlink:href="#i"/>
  <use x="203.792969" y="691.25" xlink:href="#a"/>
  <use x="233.464844" y="691.25" xlink:href="#h"/>
  <use x="280.011719" y="691.25" xlink:href="#g"/>
  <use x="311.328125" y="691.25" xlink:href="#f"/>
  <use x="355.078125" y="691.25" xlink:href="#e"/>
  <use x="388.9375" y="691.25" xlink:href="#p"/>
  <use x="405.21875" y="691.25" xlink:href="#c"/>
  <use x="441.832031" y="691.25" xlink:href="#o"/>
  <use x="473.554688" y="691.25" xlink:href="#b"/>
  <use x="503.441406" y="691.25" xlink:href="#c"/>
  <use x="540.054688" y="691.25" xlink:href="#d"/>
  <use x="572.164062" y="691.25" xlink:href="#b"/>
  <use x="617.28125" y="691.25" xlink:href="#n"/>
  <use x="648.789062" y="691.25" xlink:href="#m"/>
  <use x="678.632812" y="691.25" xlink:href="#l"/>
 </g>
</svg>
